<svg viewBox="0 0 345 113" fill="none" xmlns="http://www.w3.org/2000/svg">
<path d="M144.078 75.4556V40.4658H152.027V75.4556H144.078ZM132.265 41.5854V34.5875H163.84V41.5854H132.265ZM169.221 75.4556V45.0564H177.003V75.4556H169.221ZM164.967 50.8787V45.0564H177.003V50.8787H164.967ZM172.077 41.4175C170.546 41.4175 169.408 41.0256 168.662 40.2418C167.952 39.4207 167.598 38.413 167.598 37.2187C167.598 35.9497 167.952 34.9234 168.662 34.1396C169.408 33.3558 170.546 32.9639 172.077 32.9639C173.607 32.9639 174.726 33.3558 175.436 34.1396C176.145 34.9234 176.499 35.9497 176.499 37.2187C176.499 38.413 176.145 39.4207 175.436 40.2418C174.726 41.0256 173.607 41.4175 172.077 41.4175ZM182.5 75.4556L192.41 59.2203L192.242 60.5079L182.892 45.0564H191.346L197.448 55.7493H198.288L204.054 45.0564H212.004L203.158 60.4519L203.326 59.3323L213.795 75.4556H205.342L198.12 63.9789H197.28L190.45 75.4556H182.5ZM246.261 75.4556V34.5875H254.211V75.4556H246.261ZM219.445 75.4556V34.5875H227.395V75.4556H219.445ZM225.939 58.4925V51.4945H247.717V58.4925H225.939ZM265.115 75.4556V45.0564H272.897V75.4556H265.115ZM260.861 50.8787V45.0564H272.897V50.8787H260.861ZM267.97 41.4175C266.44 41.4175 265.302 41.0256 264.555 40.2418C263.846 39.4207 263.492 38.413 263.492 37.2187C263.492 35.9497 263.846 34.9234 264.555 34.1396C265.302 33.3558 266.44 32.9639 267.97 32.9639C269.501 32.9639 270.62 33.3558 271.33 34.1396C272.039 34.9234 272.393 35.9497 272.393 37.2187C272.393 38.413 272.039 39.4207 271.33 40.2418C270.62 41.0256 269.501 41.4175 267.97 41.4175ZM287.968 75.4556L278.45 45.0564H286.456L295.581 75.4556H287.968ZM290.263 75.4556V69.0734H298.493V75.4556H290.263ZM293.342 75.4556L301.18 45.0564H308.682L300.452 75.4556H293.342ZM327.507 76.5193C324.894 76.5193 322.599 76.0714 320.621 75.1756C318.68 74.2799 317.057 73.0856 315.75 71.5927C314.481 70.0625 313.511 68.3643 312.839 66.4982C312.205 64.6321 311.887 62.7286 311.887 60.7878V59.7242C311.887 57.7087 312.205 55.768 312.839 53.9018C313.511 51.9984 314.481 50.3189 315.75 48.8633C317.057 47.3704 318.662 46.1948 320.565 45.3363C322.468 44.4406 324.67 43.9927 327.171 43.9927C330.455 43.9927 333.199 44.7205 335.401 46.1761C337.64 47.5944 339.319 49.4791 340.439 51.8305C341.559 54.1444 342.119 56.645 342.119 59.3323V62.1314H315.191V57.3728H337.248L334.841 59.7242C334.841 57.7834 334.561 56.1225 334.001 54.7416C333.441 53.3607 332.583 52.297 331.426 51.5505C330.306 50.8041 328.888 50.4309 327.171 50.4309C325.454 50.4309 323.999 50.8227 322.804 51.6065C321.61 52.3903 320.696 53.5286 320.061 55.0215C319.464 56.4771 319.165 58.2313 319.165 60.284C319.165 62.1874 319.464 63.8856 320.061 65.3785C320.658 66.8341 321.573 67.9911 322.804 68.8495C324.036 69.6706 325.603 70.0811 327.507 70.0811C329.41 70.0811 330.959 69.7079 332.154 68.9615C333.348 68.1777 334.113 67.226 334.449 66.1063H341.615C341.167 68.1963 340.309 70.0251 339.04 71.5927C337.771 73.1602 336.147 74.3732 334.169 75.2316C332.228 76.09 330.008 76.5193 327.507 76.5193Z" fill="#FF4601"/>
<g clip-path="url(#clip0_684_424)">
<path d="M48.5466 112.816L97.0933 84.8107V28.7402L48.5466 0.734863L0 28.7402V84.8107L48.5466 112.816ZM48.5466 102.784L15.7642 84.8704H81.4485L48.5466 102.784ZM48.5466 10.7666L81.6276 28.6805H15.9434L48.5466 10.7666Z" fill="#FF4601"/>
<path d="M40.9033 37.8167H88.9723V49.0427C87.184 49.3504 85.5771 50.3197 84.4707 51.758C83.3644 53.1962 82.8397 54.998 83.001 56.8054C82.8413 58.6057 83.3679 60.3999 84.4753 61.8284C85.5826 63.2569 87.1889 64.2142 88.9723 64.5084V75.7941H41.2019L40.9033 37.8167Z" fill="#111317"/>
<path d="M30.2755 37.8167H10.2119V49.0427C12.0001 49.3504 13.6071 50.3197 14.7135 51.758C15.8198 53.1962 16.3445 54.998 16.1832 56.8054C16.3429 58.6057 15.8163 60.3999 14.7089 61.8284C13.6015 63.2569 11.9953 64.2142 10.2119 64.5084V75.7941H30.2755V37.8167Z" fill="#111317"/>
</g>
<defs>
<clipPath id="clip0_684_424">
<rect width="97.0933" height="112.081" fill="white" transform="translate(0 0.734863)"/>
</clipPath>
</defs>
</svg>
